<?xml version="1.0" encoding="UTF-8" standalone="no"?><svg xmlns="http://www.w3.org/2000/svg" xmlns:xlink="http://www.w3.org/1999/xlink" contentScriptType="application/ecmascript" contentStyleType="text/css" height="264px" preserveAspectRatio="none" style="width:216px;height:264px;" version="1.1" viewBox="0 0 216 264" width="216px" zoomAndPan="magnify"><defs><filter height="300%" id="f11199j385j6b6" width="300%" x="-1" y="-1"><feGaussianBlur result="blurOut" stdDeviation="2.0"/><feColorMatrix in="blurOut" result="blurOut2" type="matrix" values="0 0 0 0 0 0 0 0 0 0 0 0 0 0 0 0 0 0 .4 0"/><feOffset dx="4.0" dy="4.0" in="blurOut2" result="blurOut3"/><feBlend in="SourceGraphic" in2="blurOut3" mode="normal"/></filter></defs><g><!--MD5=[bb370c11d182b7ebaea7e6fa83404e81]
class Process--><rect fill="#FEFECE" filter="url(#f11199j385j6b6)" height="86.4141" id="Process" style="stroke: #A80036; stroke-width: 1.5;" width="82" x="64.5" y="167"/><ellipse cx="79.5" cy="183" fill="#ADD1B2" rx="11" ry="11" style="stroke: #A80036; stroke-width: 1.0;"/><path d="M82.4688,188.6406 Q81.8906,188.9375 81.25,189.0859 Q80.6094,189.2344 79.9063,189.2344 Q77.4063,189.2344 76.0859,187.5859 Q74.7656,185.9375 74.7656,182.8125 Q74.7656,179.6875 76.0859,178.0313 Q77.4063,176.375 79.9063,176.375 Q80.6094,176.375 81.2578,176.5313 Q81.9063,176.6875 82.4688,176.9844 L82.4688,179.7031 Q81.8438,179.125 81.25,178.8516 Q80.6563,178.5781 80.0313,178.5781 Q78.6875,178.5781 78,179.6484 Q77.3125,180.7188 77.3125,182.8125 Q77.3125,184.9063 78,185.9766 Q78.6875,187.0469 80.0313,187.0469 Q80.6563,187.0469 81.25,186.7734 Q81.8438,186.5 82.4688,185.9219 L82.4688,188.6406 Z "/><text fill="#000000" font-family="sans-serif" font-size="12" lengthAdjust="spacingAndGlyphs" textLength="50" x="93.5" y="187.1543">Process</text><line style="stroke: #A80036; stroke-width: 1.5;" x1="65.5" x2="145.5" y1="199" y2="199"/><text fill="#000000" font-family="sans-serif" font-size="11" lengthAdjust="spacingAndGlyphs" textLength="10" x="70.5" y="213.2104">id</text><text fill="#000000" font-family="sans-serif" font-size="11" lengthAdjust="spacingAndGlyphs" textLength="22" x="70.5" y="226.0151">prio</text><text fill="#000000" font-family="sans-serif" font-size="11" lengthAdjust="spacingAndGlyphs" textLength="47" x="70.5" y="238.8198">duration</text><line style="stroke: #A80036; stroke-width: 1.5;" x1="65.5" x2="145.5" y1="245.4141" y2="245.4141"/><!--MD5=[8523c9eb2e1b5151dfc9c2a797373c5f]
class Scheduler--><rect fill="#FEFECE" filter="url(#f11199j385j6b6)" height="99.2188" id="Scheduler" style="stroke: #A80036; stroke-width: 1.5;" width="199" x="6" y="8"/><ellipse cx="69.75" cy="24" fill="#ADD1B2" rx="11" ry="11" style="stroke: #A80036; stroke-width: 1.0;"/><path d="M72.7188,29.6406 Q72.1406,29.9375 71.5,30.0859 Q70.8594,30.2344 70.1563,30.2344 Q67.6563,30.2344 66.3359,28.5859 Q65.0156,26.9375 65.0156,23.8125 Q65.0156,20.6875 66.3359,19.0313 Q67.6563,17.375 70.1563,17.375 Q70.8594,17.375 71.5078,17.5313 Q72.1563,17.6875 72.7188,17.9844 L72.7188,20.7031 Q72.0938,20.125 71.5,19.8516 Q70.9063,19.5781 70.2813,19.5781 Q68.9375,19.5781 68.25,20.6484 Q67.5625,21.7188 67.5625,23.8125 Q67.5625,25.9063 68.25,26.9766 Q68.9375,28.0469 70.2813,28.0469 Q70.9063,28.0469 71.5,27.7734 Q72.0938,27.5 72.7188,26.9219 L72.7188,29.6406 Z "/><text fill="#000000" font-family="sans-serif" font-size="12" lengthAdjust="spacingAndGlyphs" textLength="63" x="90.25" y="28.1543">Scheduler</text><line style="stroke: #A80036; stroke-width: 1.5;" x1="7" x2="204" y1="40" y2="40"/><line style="stroke: #A80036; stroke-width: 1.5;" x1="7" x2="204" y1="48" y2="48"/><text fill="#000000" font-family="sans-serif" font-size="11" lengthAdjust="spacingAndGlyphs" textLength="136" x="12" y="62.2104">addProcess(Process p);</text><text fill="#000000" font-family="sans-serif" font-size="11" lengthAdjust="spacingAndGlyphs" textLength="187" x="12" y="75.0151">calculatePioScheduling(): double;</text><text fill="#000000" font-family="sans-serif" font-size="11" lengthAdjust="spacingAndGlyphs" textLength="136" x="12" y="87.8198">calculateFCFS(): double;</text><text fill="#000000" font-family="sans-serif" font-size="11" lengthAdjust="spacingAndGlyphs" textLength="125" x="12" y="100.6245">calculateSJF(): double;</text><!--MD5=[b929163cec1b7e0c0c0990d2f4295bd8]
reverse link Scheduler to Process--><path d="M105.5,120.4701 C105.5,136.0868 105.5,152.4703 105.5,166.8904 " fill="none" id="Scheduler&lt;-Process" style="stroke: #A80036; stroke-width: 1.0;"/><polygon fill="#A80036" points="105.5,107.0124,101.5,113.0124,105.5,119.0124,109.5,113.0124,105.5,107.0124" style="stroke: #A80036; stroke-width: 1.0;"/><!--MD5=[3da98a639cddf3be2a4fec983ba3b50d]
@startuml
class Process {
  id
  prio
  duration
}
class Scheduler {

  addProcess(Process p);
  calculatePioScheduling(): double;
  calculateFCFS(): double;
  calculateSJF(): double;
}

Scheduler *-down- Process
@enduml

PlantUML version 1.2019.11(Sun Sep 22 10:02:15 UTC 2019)
(GPL source distribution)
Java Runtime: OpenJDK Runtime Environment
JVM: OpenJDK 64-Bit Server VM
Java Version: 1.8.0_222-heroku-b10
Operating System: Linux
Default Encoding: UTF-8
Language: en
Country: US
--></g></svg>